<?xml version="1.0" encoding="utf-8"?>
<!-- Generator: Adobe Illustrator 17.0.0, SVG Export Plug-In . SVG Version: 6.00 Build 0)  -->
<!DOCTYPE svg PUBLIC "-//W3C//DTD SVG 1.1//EN" "http://www.w3.org/Graphics/SVG/1.1/DTD/svg11.dtd">
<svg version="1.1" id="Layer_1" xmlns="http://www.w3.org/2000/svg" xmlns:xlink="http://www.w3.org/1999/xlink" x="0px" y="0px"
	 width="400px" height="400px" viewBox="0 0 400 400" enable-background="new 0 0 400 400" xml:space="preserve">
<circle fill="#45BEA5" cx="200" cy="199.474" r="190.454"/>
<circle fill="none" stroke="#148A72" stroke-width="10" stroke-miterlimit="10" cx="200" cy="200" r="190.98"/>
<g>
	<g>
		<g>
			<g>
				<g>
					<path fill="#FFFFFF" d="M152.657,280.087c-0.241-1.413-1.379-0.623-1.659-0.776
						C151.877,281.619,152.967,279.93,152.657,280.087z"/>
					<polygon fill="#FFFFFF" points="161.767,301.567 161.14,301.331 163.384,304.197 					"/>
					<path fill="#FFFFFF" d="M168.566,322.086c1.37-2.668-2.968-7.27-3.416-11.19l0.281-0.759l-2.23-1.1
						C164.9,313.42,168.007,318.776,168.566,322.086z"/>
					<path fill="#FFFFFF" d="M168.345,334.736c0.521-1.01,1.656,2.091-0.798-2.664c0.013,0.283-0.008,0.375-0.014,0.546
						C167.726,333.057,167.966,333.671,168.345,334.736z"/>
					<path fill="#FFFFFF" d="M167.532,332.616C166.594,330.467,167.437,334.31,167.532,332.616L167.532,332.616z"/>
					<path fill="#FFFFFF" d="M172.339,342.428l-2.013-2.533c-0.204,0.804,0.881,3.413,0.106,2.619
						C172.211,345.29,172.38,344.445,172.339,342.428z"/>
					<path fill="#FFFFFF" d="M175.092,344.406l-1.008-1.317C174.019,343.439,174.134,343.862,175.092,344.406z"/>
					<path fill="#FFFFFF" d="M172.003,340.272l2.082,2.818c0.124-0.566,0.747-0.912-0.903-1.319
						C173.897,341.746,173.028,341.405,172.003,340.272z"/>
					<path fill="#FFFFFF" d="M171.517,338.368c-0.268-1.788-0.851-3.944,1.069-1.42c-1.309-2.629-2.198-3.609-2.478-3.261
						C169.833,334.034,170.175,335.717,171.517,338.368z"/>
					<path fill="#FFFFFF" d="M171.096,322.334l-0.158-2.324l-1.35-1.573C170.25,319.225,170.49,322.704,171.096,322.334z"/>
					<path fill="#FFFFFF" d="M184.284,362.952c0.465-0.163-0.496-2.312-0.34-3.038c0,0-0.181-0.131-0.436-0.351
						c-0.254-0.227-0.594-0.531-0.934-0.834c-0.699-0.597-1.35-1.28-1.35-1.28c0.436,0.903,1.248,2.077,1.907,3.153
						C183.827,361.624,184.367,362.586,184.284,362.952z"/>
					<path fill="#FFFFFF" d="M183.944,359.914c0,0,0.261,0.205,0.653,0.512c0.384,0.314,0.906,0.704,1.445,1.048
						c0.527,0.363,1.05,0.71,1.463,0.919c0.402,0.225,0.67,0.375,0.67,0.375c-0.433-0.358-0.823-0.678-1.172-0.966
						c-0.336-0.312-0.636-0.582-0.905-0.813c-0.548-0.45-0.931-0.812-1.238-1.025C184.251,359.528,184.005,359.598,183.944,359.914z
						"/>
					<path fill="#FFFFFF" d="M177.539,343.801c0,0-1.01-1.059-1.999-2.14c-0.976-1.09-1.951-2.18-1.951-2.18
						s1.082,1.344,2.197,2.662c1.109,1.322,2.261,2.613,2.261,2.613L177.539,343.801z"/>
					<path fill="#FFFFFF" d="M203.173,368.037c0,0-0.151,0.143-0.378,0.357c-0.232,0.206-0.553,0.46-0.879,0.723
						c-0.668,0.454-1.405,0.865-1.405,0.865s0.321-0.172,0.805-0.428c0.48-0.23,1.069-0.668,1.629-1.121
						c0.273-0.237,0.546-0.473,0.801-0.695c0.241-0.247,0.465-0.478,0.657-0.675c0.382-0.381,0.614-0.686,0.614-0.686
						C205.051,366.435,203.204,368.083,203.173,368.037z"/>
					<path fill="#FFFFFF" d="M213.421,358.188c-0.397,1.321,0.379,0.897,1.164,0.389c0.776-0.496,1.549-1.063,0.92,0.283
						c0.311-0.464,0.621-0.942,0.88-1.395c0.158-0.269,0.198-0.364,0.268-0.507l0.189-0.41c0.24-0.546,0.429-1.083,0.602-1.615
						c0.33-1.061,0.553-2.091,0.744-3.059c-0.352,0.935-0.844,1.839-1.52,2.747c-0.344,0.456-0.717,0.907-1.167,1.371l-0.355,0.367
						c-0.178,0.199-0.358,0.402-0.541,0.607C214.226,357.373,213.828,357.779,213.421,358.188z"/>
					<path fill="#FFFFFF" d="M218.928,348.72c-0.313,0.937-0.5,1.995-0.741,3.152C218.568,350.877,218.836,349.853,218.928,348.72z"
						/>
					<path fill="#FFFFFF" d="M195.564,366.469c0.353,0.309,1.024,1.378,3.966,1.438c0,0-0.133-0.058-0.333-0.146
						c-0.201-0.109-0.466-0.276-0.725-0.432c-0.521-0.309-1.007-0.658-1.007-0.658c-0.292-0.013-0.604-0.028-0.926-0.043
						C196.224,366.576,195.895,366.523,195.564,366.469z"/>
					<path fill="#FFFFFF" d="M197.398,366.626l0.068,0.044c0.519,0.035,1.005,0.003,1.444,0.009
						c0.437-0.028,0.829-0.125,1.162-0.194c0.67-0.158,1.153-0.25,1.426-0.377c-0.234,0.111-0.655,0.195-1.308,0.345
						c-0.327,0.07-0.72,0.152-1.185,0.207C198.536,366.648,197.998,366.679,197.398,366.626z"/>
					<path fill="#FFFFFF" d="M195.094,366.375c0.169,0.052,0.3,0.067,0.471,0.095C195.391,366.309,195.285,366.256,195.094,366.375z
						"/>
					<path fill="#FFFFFF" d="M180.975,352.353c0.431,0.357,0.977,0.808,1.5,1.241c0.611,0.572,1.28,1.093,1.745,1.375
						c0.964,0.579,1.256,0.183,0.246-2.17C182.804,351.944,183.67,354.43,180.975,352.353z"/>
					<path fill="#FFFFFF" d="M193.141,364.033c0,0-0.277-0.12-0.671-0.352c-0.4-0.215-0.926-0.515-1.422-0.877
						c-0.511-0.33-0.991-0.715-1.348-1.01c-0.359-0.289-0.59-0.494-0.59-0.494c-0.083,0.38,0.457,1.439-0.812,0.918
						c0,0,1.192,0.662,2.407,1.1c0.302,0.11,0.603,0.22,0.886,0.322c0.288,0.076,0.557,0.148,0.787,0.21
						c0.227,0.061,0.417,0.112,0.55,0.147C193.062,364.019,193.141,364.033,193.141,364.033z"/>
					<path fill="#FFFFFF" d="M195.391,364.318c0,0-0.564-0.048-1.129-0.096c-0.56-0.095-1.121-0.189-1.121-0.189
						s0.409,0.183,0.82,0.365c0.411,0.181,0.843,0.308,0.843,0.308L195.391,364.318z"/>
					<path fill="#FFFFFF" d="M214.532,353.4c0.397-1.659,1.282-3.14,2.206-4.84c-1.299,1.634-2.564,3.379-3.722,5.112
						C213.188,354.148,213.309,355.335,214.532,353.4z"/>
					<path fill="#FFFFFF" d="M207.56,361.884c0.099-0.142,0.226-0.322,0.32-0.456C207.597,361.568,207.402,361.725,207.56,361.884z"
						/>
					<path fill="#FFFFFF" d="M225.921,332.237c-0.121,0.052-0.228,0.097-0.352,0.151c0.058,0.057,0.116,0.105,0.17,0.168
						L225.921,332.237z"/>
					<path fill="#FFFFFF" d="M212.609,353.831c-0.14,0.148-0.265,0.291-0.379,0.433c-0.151,0.207-0.294,0.403-0.43,0.591
						c-0.274,0.392-0.505,0.758-0.701,1.118c-0.387,0.726-0.667,1.396-0.942,2.082c0.894-1.372,1.841-2.824,2.858-4.382
						C212.93,353.459,212.846,353.369,212.609,353.831z"/>
					<path fill="#FFFFFF" d="M221.076,343.835c-0.645,0.56-1.296,1.233-1.973,1.951
						C219.868,345.321,221.231,344.254,221.076,343.835z"/>
					<path fill="#FFFFFF" d="M208.637,361.156c-0.07,0.106-0.131,0.207-0.213,0.315
						C209.132,361.135,208.985,361.087,208.637,361.156z"/>
					<path fill="#FFFFFF" d="M208.637,361.156c0.717-1.106,1.14-2.113,1.52-3.102c-0.808,1.228-1.591,2.364-2.277,3.373
						C208.131,361.296,208.415,361.202,208.637,361.156z"/>
					<path fill="#FFFFFF" d="M220.963,323.359c0.973,0.792,0.171,4.827-2.599,7.203c-0.77,3.379,3.816,3.391,7.205,1.826
						c-0.428-0.344-0.853-0.577,0.115-3.992c-1.148,0.778-4.989,6.074-4.593,2.969c1.584-4.343,2.135-3.116,3.742-4.796
						c-2.22,0.975,0.685-6.196-1.784-6.329l-1.115,3.915C221.59,324.062,221.756,322.52,220.963,323.359z"/>
					<path fill="#FFFFFF" d="M222.295,338.193l-0.565,1.337c0.986-1.336,1.982-2.131,3.859-3.585
						c0.609-2.401,0.433-3.052,0.15-3.389c0,0-0.872,1.541-1.746,3.083c-0.889,1.538-1.777,3.075-1.777,3.075L222.295,338.193z"/>
					<path fill="#FFFFFF" d="M218.512,345.195c-0.568-1.661,0.643-4.94-1.66-3.82c-2.032,3.695-0.518,3.117-1.323,5.603
						c3.226-6.084-0.361,2.089,2.824-1.814c-0.489,1.286-1.058,2.374-1.615,3.397c0.791-0.988,1.581-1.92,2.366-2.774
						c-0.06,0.037-0.102,0.064-0.152,0.095l-0.012,0.03c-0.008-0.004-0.007-0.012-0.014-0.017c-0.295,0.174-0.432,0.207-0.178-0.035
						c-0.002-0.028,0.035-0.103,0.05-0.138c-0.136-0.134-0.212-0.327-0.277-0.524c1.244-1.589,0.462-0.097,0.277,0.524
						c0.044,0.053,0.07,0.131,0.128,0.173c0.009-0.002,0.019-0.008,0.028-0.013c0,0,0.707-1.589,1.414-3.177
						c0.683-1.588,1.365-3.175,1.365-3.175C220.858,340.708,220.017,342.312,218.512,345.195z"/>
					<path fill="#FFFFFF" d="M189.039,354.064c0.067,0.26,0.004,0.333-0.043,0.425C189.393,354.704,189.561,354.735,189.039,354.064
						z"/>
					<path fill="#FFFFFF" d="M190.629,356.903c-0.462-0.187-1.089,0.005-2.234-1.474c-0.774-1.503,0.405-0.506,0.602-0.942
						c-0.442-0.23-1.167-0.752-1.595-0.861c-0.419-0.104-0.591,0.247,0.352,1.869l0.481,0.274c0.903,1.368,2,3.12,3.002,4.417
						c0.995,1.284,1.798,2.14,1.501,2.102c-0.295-0.774-0.564-1.485-0.914-2.405C191.487,359.066,191.091,358.119,190.629,356.903z"
						/>
					<path fill="#FFFFFF" d="M206.205,357.656c0,0,0.276-0.376,0.664-0.96c0.399-0.571,0.886-1.367,1.367-2.145
						c0.462-0.792,0.931-1.577,1.241-2.155c0.253-0.483,0.423-0.804,0.423-0.804s-0.163,0.112-0.408,0.279
						c-0.123,0.084-0.266,0.182-0.42,0.286c-0.171,0.129-0.351,0.266-0.533,0.403c-0.714,0.506-1.427,1.014-1.427,1.014l0.611,0.338
						c-1.247,1.473-1.635,2.146-1.7,2.626C205.956,357.014,206.216,357.234,206.205,357.656z"/>
					<polygon fill="#FFFFFF" points="226.813,331.974 227.707,333.3 227.471,329.466 					"/>
					<polygon fill="#FFFFFF" points="230.056,325.355 231.026,326.156 231.248,324.088 					"/>
					<path fill="#FFFFFF" d="M166.67,136.881l-1.394,0.923C165.955,137.421,166.376,137.13,166.67,136.881z"/>
					<path fill="#FFFFFF" d="M177.734,132.666l0.054-0.668C177.396,132.504,177.274,132.814,177.734,132.666z"/>
					<path fill="#FFFFFF" d="M300.457,160.45c1.902-1.868,4.49-3.802,3.091-3.998l-1.516,0.24
						C301.688,158.359,301.102,159.52,300.457,160.45z"/>
					<path fill="#FFFFFF" d="M267.162,93.962c0.256,0.062,0.523,0.127,0.788,0.191c0.425-0.609,0.825-1.181,1.182-1.694
						C268.539,92.911,267.867,93.424,267.162,93.962z"/>
					<path fill="#FFFFFF" d="M267.158,99.777l-3.248,0.083C264.673,99.944,265.721,99.924,267.158,99.777z"/>
					<path fill="#FFFFFF" d="M107.7,163.162l-1.163,2.031C109.236,163.962,107.763,163.872,107.7,163.162z"/>
					<path fill="#FFFFFF" d="M261.191,257.25c1.308-1.692,2.164-3.12,2.799-4.427C262.29,254.814,260.427,256.2,261.191,257.25z"/>
					<path fill="#FFFFFF" d="M165.821,121.883c-0.852,0.594-1.153,1.007-1.016,1.275
						C165.688,122.565,166.141,122.111,165.821,121.883z"/>
					<path fill="#FFFFFF" d="M266.346,247.318c-0.268,0.283-0.471,0.586-0.721,0.884c-0.388,1.483-0.825,2.956-1.635,4.623
						C265.247,251.358,266.408,249.553,266.346,247.318z"/>
					<path fill="#FFFFFF" d="M167.201,205.523c0.17-0.063,0.345-0.174,0.51-0.218C167.634,205.133,167.446,205.276,167.201,205.523z
						"/>
					<path fill="#FFFFFF" d="M227.951,170.93c-0.453,0.511-1.28,1.241-2.047,1.944C226.344,172.608,226.976,172.038,227.951,170.93z
						"/>
					<path fill="#FFFFFF" d="M243.522,299.099C242.942,300.542,243.552,299.385,243.522,299.099L243.522,299.099z"/>
					<path fill="#FFFFFF" d="M235.49,303.629c0.006-0.362-0.061-0.67-0.325-0.839C235.404,303.044,235.497,303.327,235.49,303.629z"
						/>
					<path fill="#FFFFFF" d="M264.62,229.892c0.019-0.041,0.034-0.074,0.056-0.121C264.256,230.092,264.333,230.039,264.62,229.892z
						"/>
					<path fill="#FFFFFF" d="M241.974,300.951c0.399-0.456,0.81-1.005,1.207-1.625C242.951,299.572,242.578,300.063,241.974,300.951
						z"/>
					<path fill="#FFFFFF" d="M242.683,300.939c-0.275,0.462-0.491,0.825-0.698,1.171
						C242.105,302.382,242.307,302.285,242.683,300.939z"/>
					<path fill="#FFFFFF" d="M244.375,297.111c-0.357,0.812-0.767,1.535-1.193,2.215c0.212-0.238,0.335-0.32,0.341-0.227
						C243.702,298.681,243.955,298.09,244.375,297.111z"/>
					<path fill="#FFFFFF" d="M62.184,211.334c0.068,0.084,0.158,0.161,0.227,0.263C64.019,211.8,63.384,211.575,62.184,211.334z"/>
					<path fill="#FFFFFF" d="M300.164,118.009c-0.008,0.072,0.014,0.118,0.01,0.185c0.035-0.064,0.08-0.144,0.112-0.201
						L300.164,118.009z"/>
					<path fill="#FFFFFF" d="M300.767,112.51c0.958,2.689,0.37,3.906-0.481,5.484l4.239-0.604c0,0-0.935-1.226-1.872-2.452
						C301.71,113.724,300.767,112.51,300.767,112.51z"/>
					<path fill="#FFFFFF" d="M140.537,147.848l4.033-0.359c-3.552,3.614-6.914,4.281-2.923,4.458
						c-1.115-4.119,13.703-6.096,12.633-10.177l2.695-0.129c-0.692,0.234-0.709,0.506-1.394,0.737
						c5.35,0.03,2.284-4.201,8.455-6.002c2.193-0.518,3.863-0.517,2.632,0.504l4.244-2.78c1.377-0.448,1.313,0.362-0.057,0.808
						l6.94-3.049l-0.008,0.136c0.77-1.006,2.693-2.836,3.658-3.668c2.014-0.123-0.743,0.762-0.095,1.077l3.561-2.446
						c1.985,0.415-0.893,2.633-3.653,3.524c5.154,2.535,2.873-2.24,11.65-2.915l-3.515,1.891c3.227,1.337,5.809-0.558,10.515-0.711
						c-1.26-0.368-9.696-0.396-5.801-2.967c1.313-0.151,2.949-0.597,4.958-2.245c0.542,1.398,2.659,0.22,5.447-0.888l0.489,1.933
						c2.845-1.648,2.26-2.508,3.749-3.999c3.464-1.046,4.69,0.151,5.926,1.081c5.546-1.65-4.59-0.977,1.729-3.631
						c4.786-0.898,7.697-2.783,12.75-5.79c3.407-0.452-0.16,1.338,1.167,1.481l2.307-2.467c0.704-0.201,0.638,0.336,0.604,0.607
						c2.182-1.393-0.448-1.946,3.127-3.728c0.318-2.418,8.709,0.43,12.578-3.434c1.321,0.162-0.177,1.335,0.412,1.951
						c5.875-3.614,5.097-2.898,9.695-6.646l4.868-0.148c-3.732-0.404-0.051-3.398,3.253-5.898c-1.384-0.334-2.575-0.635-3.337-0.713
						l5.643-2.802c0.813,0.102,0.402,0.929-0.336,2.013c0.359-0.278,0.698-0.546,0.955-0.777c2.335,0.08,1.548,1.503,0.344,3.01
						c-0.832-0.161-1.667-0.348-2.483-0.54c-1.119,1.594-2.095,3.283-1.454,4.302c0.317-0.334,0.997-0.745,1.778-1.095
						c-0.287,0.428-0.445,0.781-0.213,0.918c0.26,0.14,0.747-0.466,1.568-1.236l1.967,1.722l0.076-0.937
						c0,0,2.023-0.227,4.045-0.456c2.018-0.211,4.037-0.422,4.037-0.422c2.455-1.837,4.679-3.861,7.39-5.801
						c2.712-1.933,5.911-3.805,10.325-5.158c-1.904,2.043,0.055,2.691,0.306,4.6c-2.814-1.513-6.602,2.315-11.219,3.087
						c2.425-0.399,2.124,0.623,1.603,1.086c0,0,1.908-0.946,3.815-1.891c1.917-0.91,3.835-1.819,3.835-1.819
						c0.075,0.788,0.565,0.983,1.312,1.007c0.372,0.016,0.809-0.011,1.291-0.029c0.291-0.02,0.366,0.012,0.517,0.038
						c0.138,0.029,0.278,0.068,0.417,0.124c-1.303-2.902,3.529-2.865,6.445-3.819c-0.3,0.575-0.804,1.143-1.449,1.555
						c-0.656,0.412-1.401,0.662-2.47,0.673c0.426,0.543,0.79,0.578,1.336,0.328c0.535-0.245,1.233-0.772,2.043-1.281
						c0.802-0.5,1.725-1.009,2.522-1.089c0.396-0.051,0.759,0.047,0.926,0.358c0.171,0.307,0.163,0.79-0.038,1.388
						c-0.159-0.654-0.233-1.16-0.976-0.781c1.128,0.045,1.265,1.604,1.021,2.762c-0.243,1.207-0.792,2.058-1.238,1.854l0.027-0.585
						c-0.394,2.33-0.992,5.873-1.507,8.924c-0.68,4.322-0.993,8.093,0.139,8.941c-0.345-0.03-2.815-1.72-3.223-2.25
						c0,0,1.332,3.476,2.584,7.029c1.256,3.545,2.452,7.143,2.452,7.143c-1.846-1.692-8.206,0.589-7.761-5.147
						c-0.784,1.442-1.728,3.224-2.01,6.702c0.643-0.945,3.956-1.619,3.694-0.117c-3.674,3.169-2.161,2.331-5.808,6.494
						c0.982-1.415,3.778,1.452,2.826,3.907c-0.373-0.558-3.391-0.918-3.435-1.941l1.191,7.297c-0.064-1.747-2.697-1.235-4.108-0.186
						c0.872-0.412-1.917,5.291-2.18,7.039l1.686-2.333c-2.962,6.752,2.175,8.511-0.519,15.343c-0.372-1.085-3.406-3.58-5.103-0.245
						c1.091,2.209,5.428,10.08,4.392,16.667l-1.399,0.803l-0.702,5.081c-1.381-3.876-3.57-14.02-3.991-19.217
						c-1.721,2.3-1.393,0.299-2.757,4.194c-1.408,1.025-0.566-2.615-0.196-3.77l-3.967,8.759c2.106,0.343-0.674,7.607,1.072,7.89
						l1.713-10.524c2.097,0.335,3.396,7.755,0.577,13.997c-1.402,1.319-2.989-2.553-3.691-2.67c0.353,1.084-1.069,6.528-1.773,6.925
						l0.014-3.099c-2.108,3.245,0.314,6.778-3.218,10.289c-0.704,1.416-4.232,3.371-3.187,4.081
						c3.16-1.498,10.184,0.751,11.205,3.012c-0.35,0.46-5.203,6.867-6.973,8.092c-2.704,1.707-2.655-5.283-4.97-3.834
						c0.493,0.302,0.605,1.893,0.589,2.532c-1.074,1.351-1.375-1.297-2.492,2.129c1.733,1.355-2.934,6.702,1.013,2.249
						c-0.774,3.486-1.818,3.297-3.308,7.152c1.766-0.697,2.879,5.208,2.07,8.704c-0.415-0.399-1.367,0.064-1.81,0.295
						c-2.965,6.594-5.364,9.789-8.03,15.972c-0.714,0.37-2.567,3.108-2.857,1.478c-0.038,1.037,0.267,2.136-0.51,4.063
						c-3.271,2.96,1.575-4.36-1.656-2.421c1.025,0.727-0.574,5.597-1.057,8.612c2.104-0.073,3.064-6.122,3.528-9.143
						c2.407,1.02,2.89,6.849,1.16,13.802c-1.664,5.398-2.527,1.544-2.578,2.586c-4.682,9.437,0.533,10.07-4.795,17.282
						c-2.958,2.472-3.084-1.231-4.498-1.027c1.312-4.413,3.853-5.947,5.056-8.8l-2.279,3.152c0.092-1.55,0.951-4.5,2.066-5.82
						c-2.532,2.047-7.539,16.094-12.245,22.848c-0.101,1.541-0.639,4.038,0.47,3.258l0.879-2.424
						c2.221-1.571-0.368,5.169,1.581,2.489c-0.609,3.523-0.925,7.669-3.726,11.728l-2.109-0.004c0.546,0.15,2.402-2.371,2.467-3.855
						c-0.113,2.2-5.546,5.592-4.292,8.674l2.681-2.489c-0.656,3.538-0.75,8.3-3.241,11.907c2.563-0.922,0.26-0.985,3.602-2.766
						c-3.615,1.184,5.001-9.903,0.53-7.316c3.676-1.722,3.355-4.439,7.092-7.228c-0.622-0.154-1.708,0.805,0.127-2.345
						c-0.095-0.226-0.141-0.676-0.159-0.957c0.066-0.091,0.09-0.123,0.147-0.202c-0.055,0.054-0.097,0.095-0.153,0.15
						c-0.018-0.183-0.029-0.204-0.055,0.057c-0.618,0.665-1.214,1.158-1.653,1.263c-0.525-2.243,1.964-7.437,2.105-9.518
						c1.174-1.823,0.274,1.118,1.375,0.336l0.212-3.108c1.384,0.325,4.493-4.222,3.112,0.724l1.962-4.122
						c1.828-2.118,3.64-5.359,4.039-7.677c1.162-1.839,0.817-5.588,1.047-3.432l2.119-6.882l0.345,0.081
						c3.017-6.385,3.718-14.204,9.195-20.62c0.612-2.32,1.176-4.744,3.086-8.246l1.411-0.245c0.8-2.968,4.655-7.976,3.997-9.67
						c4.265-1.791,6.305-13.411,8.834-18.169l-1.383-0.777c1.465-3.388,2.368-6.839,3.47-11.329l-1.395-0.251
						c0.394-4.085,4.646-9.07,6.761-14.952c0.342,0.587-0.357,2.016-1.062,2.945c5.634-5.834,3.508-15.509,8-21.048
						c0.113-1.758,0.697-2.844,1.435-3.835c-0.052,0.149-0.075,0.289-0.075,0.419c0.075-0.157,0.166-0.397,0.254-0.645
						c0.481-0.618,1.007-1.243,1.503-1.948c-0.561,0.549-1.055,1.088-1.379,1.598c0.423-1.232,0.937-3.147,1.269-5.086l1.684-0.269
						c0.035-0.155,0.081-0.273,0.113-0.436c1.164-1.603-0.147-1.677-1.547-1.105c0.101-0.999,0.123-1.941,0.017-2.713
						c2.794-0.643,0.935-5.053,4.057-6.19c-0.74-1.641,2.29-9.529,0.105-11.349c0.346,0.047,0.683-0.442,0.37,0.555
						c0.972-1.949,1.936-3.907,1.828-5.979l2.089-0.286l-0.994-5.275c1.961-2.385,2.954-3.342,3.503-0.172
						c-0.12-7.265,0.849-5.62,0.327-11.883l1.105,0.608c0.534-2.046-0.194-5.718,1.09-6.702c0.43-0.5,0.838-1.238,1.24-2.164
						c0.198-0.464,0.392-0.979,0.585-1.535c0.091-0.28,0.185-0.571,0.281-0.869c0.092-0.296,0.228-0.796,0.335-1.21
						c0.868-3.47,1.801-7.996,1.45-12.25c-0.1-1.052-0.265-2.09-0.547-3.087c-0.29-0.992-0.666-1.987-1.389-2.855
						c-0.162-0.229-0.427-0.37-0.588-0.599c-0.22-0.167-0.443-0.329-0.677-0.456c-0.46-0.278-0.944-0.48-1.441-0.654
						c-0.972-0.372-1.997-0.62-3.063-0.808c-4.317-0.671-9.314-0.095-13.745,0.189c0.99,0.733,0.92,1.102,0.37,1.268
						c-0.135,0.041-0.322,0.073-0.505,0.092c-0.151,0.013-0.322,0.018-0.511,0.014c-0.375-0.005-0.818-0.039-1.282-0.071
						c-1.854-0.129-4.083-0.24-3.999,1.18c-0.883-0.673-2.661-0.748-0.897-1.927c-5.876,2.26-9.431,0.968-12.925,4.373
						c-0.911-0.639,0.939-1.561,0.198-1.882c-0.431,0.309-1.692,1.242-2.449,0.924c-0.744-0.319,0.677-0.935,1.523-1.557
						c-6.058,1.845-5.911,4.578-5.659,7.072c-3.369-0.235-4.844,0.386-6.559,2.597c-1.286-0.452-3.297-0.727,0.337-2.134
						c-2.133,0.494-13.109,2.822-12.709,4.794c-0.804-0.272-2.948,0.794-3.422,1.189c-4.687,1.401-5.152,1.368-9.649,3.063
						l1.365-0.115c-1.04,2.868-3.613,1.766-7.184,3.285l0.026-0.268c-8.95,1.241-3.353,2.01-12.263,3.025l0.941,1.246
						c0.291,3.283-7.935,0.785-12.306,3.661l2.01,0.18c-2.233,1.962-8.765-1.466-11.529-0.879c-0.667-0.053,0.748-0.75,1.477-1.233
						c-7.512,0.739-0.223,2.151-5.172,4.452c-1.305-0.638,0.289-2.957-3.216-1.869c-2.018-0.167-8.763,6.903-14.14,6.8
						c1.319,0.366,2.625,0.734,0.482,2.199c-3.509,1.642-10.874,0.895-13.204,4.549c-0.538-0.027-0.789-0.156-0.882-0.337
						c-2.519,1.687-8.548,4.541-9.687,6.491c-4.469-3.778-16.097,9.207-17.822,4.817l-8.31,3.738l0.032-0.538
						c-5.491,1.972-6.938,3.838-8.37,5.685c-1.362,0.237-0.636-0.558-0.631-0.831c-8.188,2.498-8.9,3.033-14.45,8.091l-1.305-1.099
						c-1.389,1.595-12.241,2.872-19.038,8.138c-0.001-0.192,0.027-0.536,0.534-1.019c-3.866,2.843-9.398,4.375-14.06,6.098
						c-4.656,1.717-8.437,3.623-8.618,6.917c0,0-1.204,1.06-2.407,2.12c-1.191,1.075-2.381,2.15-2.381,2.15
						c7.238-3.614,0.157,2.695,3.5,1.869c-2.562,1.812-7.89,2.667-4.695,0.43l0.667-0.068c-0.116-1.62-2.422-0.585-4.786,0.707
						c-2.365,1.285-4.77,2.849-5.23,1.972c-1.691,1.152-3.38,2.323-5.06,3.573l-0.629,0.475l-0.815,0.631
						c-0.533,0.44-1.083,0.866-1.606,1.318c-1.037,0.91-2.076,1.83-2.985,2.837c-0.93,0.992-1.774,2.041-2.464,3.155
						c-0.703,1.11-1.275,2.283-1.605,3.548c-0.332,1.263-0.345,2.625-0.073,3.889c0.265,1.27,0.68,2.496,1.316,3.645
						c1.187,2.331,3.006,4.435,5.035,6.378c0.52,0.47,1.026,0.981,1.565,1.417l0.8,0.677l0.721,0.6
						c0.807,0.661,1.62,1.289,2.433,1.901c3.259,2.417,6.568,4.499,9.913,6.369l-0.437-2.835c0,0,1.14,0.663,2.28,1.326
						c1.146,0.645,2.293,1.289,2.293,1.289c0.979,1.102,0.837,2.446-2.471,0.596c1.167,2.097,6.124,1.944,6.424,1.532
						c6.189,4.045-3.744,1.115-1.753,2.144l2.839,1.202l-0.508-0.541c2.646,0.243,3.251-0.541,7.278,1.423
						c2.398,1.576,0.758,1.871,1.743,2.408c-0.071,0.144,0.244,0.371,1.546,0.749c0,0,1.497,0.696,2.993,1.392
						c1.503,0.68,3.006,1.36,3.006,1.36l-1.739-2.664c3.021,0.315,5.66,2.433,3.636-0.584c1.445,2.292,7.023,4.837,12.564,6.86
						c5.536,2.044,11.029,3.566,12.187,4.44c4.291,0.001,8.107,1.188,12.948,2.598c-1.12-0.684-1.326-2.78,2.776-1.52
						c-1.246,1.829,0.556,2.764,3.162,3.589c1.302,0.413,2.805,0.789,4.28,1.234c0.928,0.261,1.821,0.512,2.634,0.741
						c0.862,0.261,1.67,0.518,2.385,0.833c-0.97-0.319-0.834-0.584-0.128-0.81c0.352-0.135,0.856-0.245,1.438-0.44
						c0.585-0.186,1.234-0.479,1.902-0.813c0.511-0.303,1.056-0.597,1.582-0.926c0.516-0.31,1.077-0.722,1.521-1.028
						c0.793-0.558,1.37-1.098,1.82-1.558c0.871-0.924,0.936-1.519-0.815-1.375c3.217-1.805,1.08,1.164,3.922,0.349
						c3.078-3.203,6.931-5.849,11.048-8.611c4.101-2.763,8.447-5.618,12.302-9.159c-0.222-0.523-2.102-0.054-0.893-2.104l5.98-1.429
						c1.409-1.532-0.569-3.632,3.532-4.602c-0.703-0.009-1.755-0.029-0.81-1.05c17.338-11.147,30.212-28.752,49.037-38.679
						c-2.804,1.059-1.469-0.253,0.111-1.698c-1.211,0.732-0.867-1.031-1.561-1.405l7.853-4.198c-0.177-2.581,6.861-6.27,6.232-8.34
						l-1.816,2.088c1.189-4.152-7.232-0.457-8.803-3.037c-1.308,4.678-10.628,4.203-13.161,11.444
						c-1.509,0.52,0.314-1.549-0.734-1.546c-0.434,2.073-1.795,3.628-5.027,5.697l0.115-0.52c-7.818,7.25-12.087,9.31-21.687,16.491
						l1.63,0.534c-2.076,1.529-2.787,1.532-3.94,2.037c-0.785,3.613,5.555-4.614,5.12-1c-4.525-0.028-13.8,11.773-17.762,10.655
						c-3.026,2.535,1.982,0.551-1.046,3.085l-1.392-0.027l-0.001,1.547c-2.109,1.515-3.847,1.473-4.42,0.938
						c0.54-0.333,1.226-1.314,1.698-1.796c-3.259,1.33-7.013,6.34-8.128,6.792l3.274-1.977c-3.86,3.764-8.525,7.492-13.105,11.188
						c-4.578,3.685-9.085,7.397-12.598,10.909l1.006,0.159c-0.913,0.876-1.766,1.616-2.315,1.993
						c-0.424,0.34-0.84,0.558-1.208,0.677c-0.721,0.314-1.396,0.078-2.184-0.1c-0.196-0.044-0.407-0.092-0.64-0.144
						c-0.257-0.048-0.399-0.086-0.865-0.151c-0.831-0.124-1.869-0.252-3.212-0.415l0.321-0.106
						c-1.723,0.381-4.013,0.229-6.249-0.421c2.262-0.251-3.494-2.536-0.558-2.701c-4.193-0.404-5.287-0.489-6.06-0.269
						c-0.78,0.206-1.25,0.67-4.327,1.06l-0.893-1.488c-2.145,0.4-2.474,0.888-6.683-0.227c3.678,0.215-2.04-2.549,2.133-2.502
						c-3.863-2.64-7.205-3.188-9.952-3.692c-2.739-0.505-4.87-0.959-6.115-3.434c-2.515,0.712-0.867,1.848,1.13,2.768
						c1.995,0.919,4.327,1.597,3.115,1.504c1.469,1.669-4.079,1.009-6.625-0.367c-2.684-1.166-3.074-5.589-9.703-8.432
						c0.651,0.306,0.792,0.106,1.445,0.405c-2.14-1.824-5.303-1.152-7.733-3.764c-2.513,0.945-3.8-1.968-5.371-0.011
						c0,0,1.552,0.605,3.106,1.21c1.562,0.584,3.123,1.169,3.123,1.169c-3.653-1.015-8.193,0.026-13.027-4.19
						c0.662-0.196,2.592,0.109,3.882,0.367c-1.262-1.472-3.299-1.213-4.563-2.775c0.836-0.936,2.62-0.085,4.79,0.992
						c2.167,1.077,4.736,2.374,6.947,2.394c-1.285-1.744-7.543-1.789-4.551-3.248c-2.041,0.846-3.567-0.069-5.199-1.215
						c-1.643-1.149-3.379-2.501-6.055-2.661l1.042-1.081c-0.74-0.193-2.412-0.432-3.49-1.228c0,0,0.768-0.057,1.536-0.114
						c0.765-0.069,1.53-0.139,1.53-0.139c-0.994-0.158-1.823-0.564-2.511-1.105c-0.348-0.269-0.673-0.567-0.96-0.888
						c-0.265-0.3-0.664-0.719-0.647-0.855c-0.314-0.814-0.124-1.369-0.932-1.56c0.821,0.802,0.669,1.169,0.209,1.571
						c-0.424,0.403-1.307,0.628-0.957,1.596c-1.407-0.474-2.148-1.186-2.32-1.774c-0.187-0.595,0.144-1.101,0.588-1.543
						c0.957-0.906,2.008-1.542,2.609-2.689c-0.024,0.187-0.48,0.394-1,0.597c-0.501,0.191-1.119,0.358-1.358-0.13
						c0.727-0.75,2.078-1.219,2.965-0.983c0.578-0.723,0.361-0.999-0.185-1.149c-0.514-0.173-1.411-0.085-1.22-0.855
						c0.558,0.124,0.83,0.123,1.008-0.001c0.048-0.033,0.252-0.245,0.369-0.426c0.126-0.191,0.246-0.404,0.357-0.637
						c0.438-0.928,0.801-2.16,1.916-3.276l0.867,1.219c3.555-1.837,3.64-2.743,3.597-3.627c-0.028-0.866-0.142-1.693,3.354-3.112
						c0,0-0.405,0.849-0.81,1.697c-0.392,0.849-0.784,1.697-0.784,1.697s0.747-0.614,1.494-1.227
						c0.758-0.609,1.516-1.216,1.516-1.216l0.185,1.867c2.952-3.203,4.285-3.574,8.134-5.144c-1.349-0.46-0.835-2.653,2.422-4.433
						c2.649-0.39-0.593,1.906,3.957-0.707c-0.623,1.378-1.22,3.009-3.871,2.857c0.022,0.538-0.581,1.376-0.563,1.913
						c2.846-0.376,6.101-2.953,7.787-3.823c-0.676,0.279-1.483,0.608-1.979,0.621c0,0,1.454-1.324,2.907-2.647
						c1.471-1.315,2.941-2.629,2.941-2.629c1.325-0.029,0.671,0.798,0.025,1.611c1.307-0.829,1.961-1.919,3.946-3.031
						c0.006,1.353,0.676,2.414-1.938,4.342l5.918-4.382c0.666,0.264,3.983-0.291,3.326,0.519c3.921-1.073,7.937-6.327,13.212-7.671
						c0.157-0.329,0.571-0.767,1.539-1.39c4.709-1.809,9.378-2.243,14.197-6.139l3.972,0.665c4.105-2.293-5.303-0.72,1.543-4.539
						c4.814-2.797,2.623,0.908,4.642,0.713c2.095-2.077,5.647-5.989,11.02-6.278C143.263,146.892,141.925,147.099,140.537,147.848z
						 M193.993,125.795c-0.942,0.684-2.692,2.377-3.769,1.838C190.816,125.582,192.029,125.999,193.993,125.795z M276.152,94.33
						c-0.665,0.701-1.966,0.822-3.52,0.683C273.611,94.602,274.774,94.32,276.152,94.33z M249.541,283.165
						c-0.002-0.054-0.004-0.092-0.016-0.141C251.097,280.969,250.518,281.688,249.541,283.165z M246.774,287.66
						c-0.03,0.565,0.174,0.619,0.457,0.504c-0.192-0.491,0.275-1.571,0.928-2.744C247.648,285.596,247.12,286.098,246.774,287.66z
						 M72.737,227.518l-0.787-0.778C74.256,227.291,73.505,227.377,72.737,227.518z"/>
					<path fill="#FFFFFF" d="M267.188,99.094c-0.376-0.151-0.541-0.393-0.693-0.641C266.146,98.822,266.223,99.103,267.188,99.094z"
						/>
					<path fill="#FFFFFF" d="M107.916,162.787c-0.059,0.013-0.11,0.041-0.166,0.057c-0.051,0.121-0.06,0.225-0.05,0.318
						L107.916,162.787z"/>
					<path fill="#FFFFFF" d="M267.066,208.454c0.602-0.911,1.08-1.361,1.49-1.623C268.239,206.64,267.771,206.975,267.066,208.454z"
						/>
					<path fill="#FFFFFF" d="M237.186,313.899l1.126-3.203c-0.646,1.499-1.195,1.879-1.768,2.515
						C236.889,313.299,237.627,312.941,237.186,313.899z"/>
					<path fill="#FFFFFF" d="M215.588,335.587c-0.075,0.516-0.487,0.913-0.558,1.424l0.672,0.223
						C216.68,335.391,216.88,333.845,215.588,335.587z"/>
					<path fill="#FFFFFF" d="M231.35,314.505c-1.246-0.317-1.793,1.756-2.637,3.963c0.059-0.128,0.11-0.253,0.186-0.372
						C230.163,319.504,230.769,316.999,231.35,314.505z"/>
					<path fill="#FFFFFF" d="M228.507,318.974c-0.273,0.674-0.576,1.35-0.949,1.955
						C228.065,321.493,228.086,320.208,228.507,318.974z"/>
					<path fill="#FFFFFF" d="M244.745,294.045c-0.764,0.874,1.163,1.314,0.431,1.67
						C246.107,297.521,246.552,288.149,244.745,294.045z"/>
					<polygon fill="#FFFFFF" points="226.793,314.369 228.558,314.306 228.016,312.575 					"/>
					<path fill="#FFFFFF" d="M235.864,298.228l-1.992,3.196c0.259,0.061,0.193,0.556,0.048,1.133
						C234.958,300.497,236.319,298.344,235.864,298.228z"/>
					<path fill="#FFFFFF" d="M233.919,302.556c-0.547,1.07-1.01,2.115-1.071,2.828C233.116,304.791,233.673,303.507,233.919,302.556
						z"/>
					<polygon fill="#FFFFFF" points="228.631,309.58 229.406,308.729 230.661,306.405 					"/>
					<path fill="#FFFFFF" d="M252.772,261.74l1.229-3.918c-0.322-0.594-1.065,0.296-1.479,1.771
						C252.47,260.637,252.05,262.107,252.772,261.74z"/>
					<path fill="#FFFFFF" d="M243.885,271.289c0.744-0.873,1.091-0.799,1.812-1.159l-1.708-0.898L243.885,271.289z"/>
					<path fill="#FFFFFF" d="M248.289,260.251c-0.326-0.587,0.967-6.024-0.993-1.253C247.617,259.59,246.38,263.5,248.289,260.251z"
						/>
					<polygon fill="#FFFFFF" points="274.32,204.592 273.957,205.564 276.942,206.605 					"/>
					<path fill="#FFFFFF" d="M286.593,151.467c-2.35,4.252,1.447,1.738-0.932,5.492c0.313,1.318,1.944-3.07,2.152-1.762
						C288.067,152.2,288.997,150.92,286.593,151.467z"/>
					<path fill="#FFFFFF" d="M287.812,155.197c-0.042,0.48-0.069,0.994-0.058,1.557
						C287.859,155.896,287.853,155.473,287.812,155.197z"/>
					<polygon fill="#FFFFFF" points="237.616,164.638 240.382,163.06 238.174,163.603 					"/>
					<path fill="#FFFFFF" d="M240.527,158.914l1.887,1.013l0.187-2.608C242.131,157.859,241.229,158.897,240.527,158.914z"/>
					<path fill="#FFFFFF" d="M203.455,126.615l0.054-0.535c-0.629-0.328-1.322-0.114-2.71,0.31L203.455,126.615z"/>
					<polygon fill="#FFFFFF" points="163.767,140.144 164.454,139.916 162.529,138.721 					"/>
					<path fill="#FFFFFF" d="M132.139,155.602c1.347-0.49,2.739-1.517,4.095-2.003C133.487,155.111,130.897,153.664,132.139,155.602
						z"/>
				</g>
			</g>
		</g>
	</g>
</g>
</svg>
